<svg width="1440" height="1080" viewBox="0 0 1440 1080" fill="none" xmlns="http://www.w3.org/2000/svg">
<g clip-path="url(#clip0_0_80)">
<rect width="1440" height="1080" fill="white"/>
<rect width="1440" height="1080" fill="white"/>
<path fill-rule="evenodd" clip-rule="evenodd" d="M906.908 1C906.908 1 875.808 200.372 1177.28 216.397C1478.74 232.422 1495.8 362.124 1495.8 362.124V1H906.908Z" fill="#EEEFF4"/>
<path fill-rule="evenodd" clip-rule="evenodd" d="M438 1080C438 1080 527 891.745 715 891.745C903 891.745 998.118 858.959 1045 820.885C1091.88 782.811 1222 687.626 1412 754.256C1602 820.885 1738 1080 1738 1080H438Z" fill="#82A2F4"/>
<circle cx="851.5" cy="344.5" r="83.5" fill="#D8EDF7"/>
<circle cx="193.5" cy="615.5" r="31.5" fill="#F4E4D5"/>
<circle cx="1282.5" cy="218.5" r="70.5" fill="#2F80ED"/>
<circle cx="1102.5" cy="784.5" r="31.5" fill="#EEEFF4"/>
<circle cx="55.5" cy="2.5" r="193.5" fill="#2F80ED"/>
</g>
<defs>
<clipPath id="clip0_0_80">
<rect width="1440" height="1080" fill="white"/>
</clipPath>
</defs>
</svg>
