<?xml version="1.0" standalone="no"?>
<!DOCTYPE svg PUBLIC "-//W3C//DTD SVG 20010904//EN"
 "http://www.w3.org/TR/2001/REC-SVG-20010904/DTD/svg10.dtd">
<svg version="1.0" xmlns="http://www.w3.org/2000/svg"
 width="300.000000pt" height="300.000000pt" viewBox="0 0 300.000000 300.000000"
 preserveAspectRatio="xMidYMid meet">
<metadata>
Created by potrace 1.14, written by Peter Selinger 2001-2017
</metadata>
<g transform="translate(0.000000,300.000000) scale(0.100000,-0.100000)"
fill="#000000" stroke="none">
<path d="M700 2442 c-8 -4 -45 -26 -82 -50 -74 -48 -80 -59 -97 -177 -5 -42
-8 -340 -5 -754 l4 -684 35 -46 c46 -59 103 -97 166 -110 58 -13 404 -14 467
-2 91 18 182 106 202 196 15 68 15 1378 -1 1439 -14 56 -71 123 -137 163 l-47
28 -245 2 c-135 1 -252 -1 -260 -5z"/>
<path d="M1855 2440 c-63 -29 -131 -88 -155 -135 l-25 -50 0 -375 c0 -281 4
-384 13 -412 20 -56 96 -124 157 -140 70 -18 483 -18 545 0 25 8 66 32 92 55
42 37 50 51 69 122 19 72 22 108 23 360 2 278 2 281 -25 379 -15 54 -31 102
-36 106 -4 4 -39 28 -77 54 l-68 46 -247 -1 c-135 0 -255 -4 -266 -9z"/>
</g>
</svg>
